<svg width="53" height="60" viewBox="0 0 53 60" fill="none" xmlns="http://www.w3.org/2000/svg">
<path d="M0 0H52.4343V59.959H0V0ZM3.7773 3.82269C3.7779 18.3395 3.7773 32.8562 3.7773 47.373C18.7521 47.3736 33.7263 47.3724 48.7012 47.3736C48.6892 44.7799 48.6958 42.1863 48.694 39.5927C48.6743 36.7876 48.6994 33.9819 48.6797 31.1769C48.6797 22.0588 48.6576 12.9408 48.657 3.82269C33.6971 3.82209 18.7372 3.82149 3.7773 3.82269ZM9.91533 50.903C9.91115 51.2512 9.91474 51.6 9.91295 51.9487C10.4755 51.9493 11.0381 51.9487 11.6006 51.9487C11.6006 53.7153 11.6006 55.4824 11.6006 57.2489C12.0336 57.2495 12.466 57.2483 12.899 57.2495C12.9007 55.4824 12.8984 53.7159 12.9001 51.9493C13.4496 51.9488 13.9996 51.9493 14.549 51.9487C14.549 51.6 14.549 51.2524 14.549 50.9042C13.0047 50.9031 11.4597 50.9054 9.91533 50.903ZM16.7814 50.9042C16.782 52.3698 16.7808 53.8353 16.782 55.3002C16.7766 55.787 16.9617 56.2814 17.326 56.6117C17.8348 57.0841 18.5544 57.2423 19.2299 57.2495C19.9143 57.2531 20.6435 57.1104 21.1756 56.6529C21.5679 56.3233 21.771 55.8085 21.7668 55.302C21.7704 53.8359 21.7662 52.3704 21.7686 50.9048C21.341 50.9025 20.9134 50.9054 20.4858 50.903C20.481 52.23 20.4846 53.5564 20.484 54.8834C20.4888 55.1599 20.4936 55.4561 20.3478 55.7028C20.1729 56.0169 19.8122 56.1757 19.467 56.2092C19.114 56.242 18.7288 56.208 18.4338 55.9936C18.1794 55.8085 18.0653 55.4854 18.0659 55.1802C18.0647 53.7553 18.0659 52.3298 18.0653 50.9048C17.6371 50.9031 17.209 50.9036 16.7814 50.9042ZM24.6053 50.9036C24.6041 53.0189 24.6041 55.1342 24.6053 57.2495C25.3225 57.2483 26.0398 57.2489 26.757 57.2495C27.62 57.2585 28.5373 57.0196 29.1506 56.38C29.8057 55.704 30.0052 54.7156 29.9556 53.8037C29.924 52.9933 29.6409 52.1512 29.0073 51.6149C28.3593 51.0535 27.4695 50.8887 26.6352 50.9036C25.9586 50.9042 25.2819 50.9042 24.6053 50.9036ZM32.4507 50.9036C32.4495 53.0189 32.4501 55.1342 32.4507 57.2495C32.8819 57.2501 33.3137 57.2465 33.7449 57.2513C33.7556 55.136 33.7467 53.0201 33.7496 50.9042C33.3167 50.9031 32.8837 50.9042 32.4507 50.9036ZM4.35897 51.4149C3.66144 51.9828 3.59456 53.1712 4.2473 53.7983C4.73342 54.2922 5.4196 54.4761 6.02696 54.7675C6.33213 54.9133 6.67313 55.1563 6.6582 55.5355C6.67492 55.8903 6.35542 56.1501 6.02875 56.1966C5.34555 56.3095 4.64503 56.153 4.00603 55.91C3.926 56.2522 3.85553 56.5968 3.77849 56.9396C4.38585 57.1504 5.03023 57.2471 5.67222 57.2495C6.26046 57.2441 6.87737 57.1074 7.3408 56.7264C8.10641 56.1118 8.12313 54.7807 7.35812 54.159C6.81825 53.7009 6.10997 53.5427 5.50441 53.2005C5.2494 53.0631 5.01351 52.8081 5.06248 52.4964C5.078 52.1805 5.38676 51.9882 5.67282 51.9487C6.23538 51.8669 6.81466 51.9601 7.34976 52.1422C7.42142 51.8024 7.50145 51.4644 7.56236 51.1228C7.02787 50.964 6.46769 50.9019 5.9111 50.9048C5.36108 50.9156 4.78896 51.0565 4.35897 51.4149ZM38.4908 50.9819C37.8441 51.1157 37.2534 51.5044 36.8915 52.0592C36.415 52.7795 36.2931 53.68 36.3678 54.5257C36.4376 55.3277 36.7631 56.1429 37.4027 56.6577C38.0919 57.2179 39.045 57.3469 39.899 57.1862C40.6025 57.0584 41.2469 56.6296 41.6172 56.0157C42.0902 55.2411 42.1797 54.288 42.0591 53.4041C41.9498 52.6278 41.5825 51.8544 40.9262 51.3969C40.2275 50.9048 39.312 50.8141 38.4908 50.9819ZM45.6226 51.121C45.2069 51.2948 44.8439 51.6221 44.6874 52.0515C44.4951 52.5848 44.5441 53.2345 44.9203 53.6782C45.315 54.1476 45.8997 54.3853 46.4545 54.6069C46.7435 54.7329 47.0487 54.8565 47.2703 55.0894C47.4966 55.3283 47.4996 55.7529 47.2571 55.9822C47.0768 56.1554 46.8176 56.2092 46.5763 56.2295C45.9648 56.2641 45.3539 56.1286 44.7853 55.9112C44.7107 56.254 44.6348 56.5974 44.5602 56.9408C45.3216 57.194 46.1416 57.3116 46.9406 57.2125C47.4602 57.1384 47.9863 56.9282 48.3315 56.5185C48.7328 56.042 48.7919 55.3426 48.5853 54.7699C48.4121 54.3095 47.9929 54.0055 47.5701 53.7911C47.0923 53.5361 46.5495 53.4059 46.1105 53.081C45.8501 52.9037 45.7546 52.5245 45.923 52.2539C46.0783 52.0138 46.3822 51.9452 46.648 51.9237C47.1502 51.898 47.6573 51.9756 48.1314 52.1422C48.2049 51.8036 48.2784 51.465 48.347 51.1258C47.9839 51.0159 47.6089 50.9496 47.2309 50.924C46.6898 50.878 46.1266 50.9013 45.6226 51.121ZM51.4877 56.1184C51.3736 56.4325 51.2709 56.7503 51.1634 57.0668C51.0571 56.7508 50.9514 56.4349 50.8415 56.1208C50.7902 56.1214 50.6869 56.122 50.6349 56.1226C50.6349 56.4976 50.6355 56.8733 50.6349 57.2489C50.6725 57.2489 50.7478 57.2489 50.7848 57.2489C50.7848 56.9503 50.7848 56.6523 50.7842 56.3543C50.8869 56.6517 50.9831 56.9515 51.087 57.2489C51.1258 57.2489 51.2023 57.2495 51.2405 57.2495C51.3348 56.9551 51.4483 56.666 51.5229 56.3657C51.5504 56.6601 51.5319 56.9557 51.5403 57.2507C51.5791 57.2501 51.6561 57.2489 51.6949 57.2477C51.6949 56.8727 51.6949 56.4976 51.6949 56.1226C51.6251 56.1202 51.5558 56.119 51.4877 56.1184ZM49.6125 56.122C49.6125 56.1548 49.6113 56.2217 49.6113 56.2552C49.7331 56.2558 49.8556 56.2564 49.978 56.257C49.978 56.5872 49.978 56.9181 49.978 57.2483C50.0174 57.2483 50.0956 57.2483 50.1351 57.2483C50.1351 56.9181 50.1357 56.5878 50.1345 56.2576C50.2563 56.2564 50.3775 56.2558 50.5005 56.2564C50.5005 56.2229 50.5005 56.1548 50.5005 56.1214C50.2043 56.122 49.9081 56.1214 49.6125 56.122Z" fill="white"/>
<path d="M21.9692 12.5293C23.5769 12.8357 25.1571 13.2668 26.7277 13.7225C27.7251 14.0169 28.7194 14.3227 29.703 14.6589C30.849 15.0614 31.9831 15.5356 32.99 16.2236C33.8004 16.776 34.5069 17.4992 34.9667 18.3711C35.5944 19.5476 35.7819 20.8997 35.8201 22.2165C35.8595 23.4658 35.7485 24.7677 35.1584 25.8917C34.7386 26.708 33.9969 27.3757 33.0981 27.608C31.9431 27.9174 30.7236 27.6056 29.6731 27.0986C29.6737 24.3163 29.6737 21.5333 29.6725 18.7503C29.6582 18.2744 29.6039 17.7715 29.3369 17.3642C29.1368 17.0537 28.7887 16.8596 28.4286 16.8059C28.1801 16.7676 27.9281 16.893 27.786 17.0949C27.5262 17.4496 27.4874 17.9077 27.4862 18.3335C27.4862 25.1117 27.4856 31.8894 27.4868 38.6676C25.648 38.0829 23.808 37.5007 21.9692 36.916C21.9698 28.7869 21.9692 20.6584 21.9692 12.5293Z" fill="white"/>
<path d="M12.6016 30.2143C15.369 29.2331 18.1346 28.2459 20.9027 27.2659C20.9021 28.3361 20.9009 29.4068 20.9033 30.477C18.988 31.165 17.0716 31.8482 15.1564 32.5362C14.9109 32.6299 14.6631 32.7434 14.4744 32.9321C14.3723 33.033 14.2988 33.1973 14.3824 33.3328C14.4941 33.5042 14.693 33.5866 14.8793 33.65C15.2806 33.7742 15.704 33.8034 16.1215 33.8064C16.8023 33.7987 17.4885 33.7079 18.1346 33.4869C19.0579 33.1549 19.9788 32.8157 20.9027 32.4848C20.9009 33.4433 20.9021 34.4024 20.9015 35.3609C18.1406 35.8883 15.2579 35.7658 12.5562 34.9853C11.6968 34.7231 10.792 34.5022 10.0682 33.9408C9.66871 33.6362 9.31039 33.1919 9.30681 32.6664C9.29486 32.182 9.61974 31.7622 10.0025 31.4994C10.7974 30.9422 11.6974 30.5564 12.6016 30.2143Z" fill="white"/>
<path d="M32.4794 28.8102C33.7096 28.6382 34.959 28.6173 36.197 28.714C37.6882 28.8353 39.174 29.1183 40.5804 29.6379C41.3401 29.8905 42.1218 30.1849 42.7077 30.7523C43.0385 31.0676 43.2607 31.5394 43.1424 32.0004C43.0093 32.5266 42.5619 32.8885 42.1344 33.1811C41.5587 33.5603 40.9286 33.8535 40.2777 34.0769C36.3618 35.4827 32.4471 36.8897 28.5319 38.2949C28.5295 37.2283 28.5325 36.1611 28.5307 35.0945C31.4982 34.0333 34.4687 32.9792 37.4374 31.9198C37.7264 31.8063 38.0405 31.6773 38.2197 31.4092C38.3206 31.2647 38.246 31.0712 38.1092 30.9816C37.8112 30.7744 37.4398 30.7152 37.0874 30.6716C36.1211 30.5839 35.1298 30.7051 34.222 31.0533C32.3247 31.7203 30.4274 32.3886 28.5307 33.0569C28.5313 31.9491 28.5307 30.8413 28.5307 29.7334C29.8087 29.2832 31.1387 28.9953 32.4794 28.8102Z" fill="white"/>
<path d="M25.9036 51.9487C26.5068 51.9529 27.1494 51.8991 27.7024 52.1906C28.207 52.4366 28.5224 52.961 28.6101 53.5038C28.7021 54.0688 28.6758 54.6725 28.4358 55.1999C28.2476 55.6095 27.8839 55.9296 27.4563 56.0688C26.9583 56.2474 26.422 56.1966 25.9036 56.2038C25.9036 54.7854 25.9036 53.367 25.9036 51.9487Z" fill="white"/>
<path d="M38.722 51.996C39.226 51.8347 39.8298 51.9147 40.2251 52.285C40.5679 52.6039 40.7351 53.0655 40.805 53.5188C40.8814 54.0712 40.8599 54.6475 40.676 55.1778C40.5327 55.5875 40.243 55.9691 39.828 56.1292C39.2959 56.3322 38.6312 56.257 38.2125 55.8497C37.8375 55.492 37.678 54.9682 37.6279 54.466C37.5777 53.9333 37.6195 53.3803 37.8244 52.8822C37.9874 52.4827 38.3021 52.1279 38.722 51.996Z" fill="white"/>
</svg>
