<svg width="36" height="36" viewBox="0 0 36 36" fill="none" xmlns="http://www.w3.org/2000/svg">
<path d="M35.6799 25.4291C34.9757 26.3247 33.2522 26.9619 33.2522 26.9619L20.4363 31.6009V28.1794L29.8682 24.7942C30.9392 24.4088 31.1035 23.8601 30.2327 23.5744C29.3642 23.2864 27.7915 23.3703 26.7227 23.7558L20.4363 25.9869V22.4361L20.7985 22.3137C20.7985 22.3137 22.6143 21.6652 25.168 21.3795C27.7217 21.0961 30.8492 21.4181 33.3039 22.3545C36.0714 23.2388 36.3819 24.5358 35.6799 25.4291V25.4291ZM21.6558 19.6064V10.8543C21.6558 9.82719 21.469 8.88169 20.5128 8.61414C19.7793 8.37606 19.3248 9.06308 19.3248 10.0879V32L13.4613 30.1249V4C15.9543 4.46708 19.5858 5.56903 21.5388 6.23338C26.5045 7.94979 28.1875 10.0879 28.1875 14.9061C28.1875 19.6019 25.312 21.3818 21.6558 19.6042V19.6064ZM2.70191 27.8257C-0.137566 27.014 -0.610062 25.3361 0.683678 24.3702C1.88067 23.4769 3.91465 22.8057 3.91465 22.8057L12.3228 19.7901V23.2252L6.27039 25.4087C5.2039 25.7942 5.03965 26.3406 5.90814 26.6286C6.77663 26.9142 8.34937 26.8326 9.41811 26.4472L12.3206 25.3838V28.4583L11.7423 28.5558C8.71435 29.0499 5.61271 28.7986 2.70191 27.8235V27.8257Z" fill="white"/>
</svg>
